PathFileType	4	(X/Y/Z)	D:\TRACE\spotREDO_2-26-24\spot_Both_Motion_3_9-platform.trc
DataRate	CameraRate	NumFrames	NumMarkers	Units	OrigDataRate	OrigDataStartFrame	OrigNumFrames
100.00	100.00	      66	5	mm	100.00	2626	      7000
Frame#	Time	Left_Front			Right_Front			Left_Aft			Right_Aft			Post			
		X1	Y1	Z1	X2	Y2	Z2	X3	Y3	Z3	X4	Y4	Z4	X5	Y5	Z5	

2626	26.250	-701.16119	58.51160	-556.21649	713.45404	58.48685	-471.67181	-772.09430	-62.01731	656.48065	797.11493	-55.27231	661.82336	-7.09242	724.71863	-894.76923	
2627	26.260	-701.14484	58.27153	-556.31213	713.40979	58.37653	-471.75653	-772.26093	-61.92285	656.28485	797.15643	-54.98212	661.63770	-7.18951	724.36017	-895.38855	
2628	26.270	-701.38422	58.02749	-556.45453	713.33960	58.21978	-471.95035	-772.35626	-61.64979	656.24774	797.09125	-54.59605	661.54449	-7.03527	724.11359	-895.72827	
2629	26.280	-701.63715	57.71490	-556.65253	713.26862	58.15844	-472.01157	-772.54071	-61.41079	656.24176	796.87134	-54.20903	661.37878	-7.37453	723.68018	-896.14313	
2630	26.290	-701.69287	57.36098	-556.76337	713.04309	58.04394	-472.32635	-772.86737	-61.16601	656.20892	796.79211	-54.05780	661.29315	-7.61073	723.05048	-896.47223	
2631	26.300	-701.66595	56.97361	-556.77917	712.82080	57.82220	-472.46738	-773.27338	-60.44015	656.17755	796.53290	-53.75886	661.21680	-7.74504	722.81232	-896.56726	
2632	26.310	-701.67609	56.80431	-556.82593	712.65021	57.56606	-472.49185	-773.32642	-60.18005	656.15875	796.41431	-53.57294	661.12506	-7.58065	722.41699	-896.65350	
2633	26.320	-701.77808	56.61745	-556.84863	712.49823	57.05857	-472.47961	-773.24164	-60.19473	656.13281	796.67255	-53.21286	661.46454	-8.07613	722.08368	-896.94489	
2634	26.330	-701.98822	56.44737	-556.93005	712.48334	56.85040	-472.49600	-773.19879	-60.08847	656.15875	796.30914	-53.25496	661.10864	-8.27373	721.84222	-897.14667	
2635	26.340	-702.23730	56.26913	-557.08923	712.34625	56.61868	-472.56635	-773.26508	-59.91113	656.15369	796.23468	-52.99348	661.17596	-8.34656	721.35339	-897.74823	
2636	26.350	-702.48407	55.96880	-557.20209	712.15869	56.41484	-472.65140	-773.42889	-59.58570	656.07361	796.09351	-52.72546	661.25092	-8.38452	720.92920	-898.20178	
2637	26.360	-702.67084	55.76094	-557.23999	711.91400	56.33116	-472.70462	-773.64673	-59.27666	656.01080	795.99359	-52.46401	661.33655	-8.39123	720.64832	-898.56964	
2638	26.370	-702.84064	55.65158	-557.26416	711.78516	56.19111	-472.75110	-773.71124	-59.10233	655.99969	795.73596	-52.23611	661.31525	-8.57775	720.40588	-898.94867	
2639	26.380	-703.00281	55.53945	-557.43597	711.57861	56.04617	-472.81448	-773.87177	-59.09798	655.93573	795.51740	-52.02536	661.22705	-9.02587	720.23853	-899.25220	
2640	26.390	-703.16571	55.41153	-557.56317	711.47565	55.79079	-472.88065	-774.26300	-58.59761	655.87213	795.43176	-51.84492	661.22723	-8.86643	719.93951	-899.36646	
2641	26.400	-703.41644	55.29851	-557.62451	711.35266	55.63433	-472.93683	-774.32947	-57.95175	656.00238	795.24298	-51.59840	661.21838	-9.55811	719.53290	-899.87872	
2642	26.410	-703.57086	55.06398	-557.63007	711.24115	55.54226	-472.95645	-774.52747	-58.32008	655.68500	795.03961	-51.36175	661.13391	-9.83241	719.21832	-900.05573	
2643	26.420	-703.70239	54.91029	-557.62152	711.08722	55.46477	-473.05130	-774.64246	-58.12092	655.80103	794.79779	-51.11290	661.03864	-9.80611	718.89832	-900.16370	
2644	26.430	-703.84265	54.60033	-557.64813	710.78253	55.46779	-473.25757	-774.91919	-58.06390	655.70081	794.37329	-50.90177	660.95874	-9.85493	718.60797	-900.25018	
2645	26.440	-704.21332	54.50003	-557.62775	710.53796	55.28084	-473.32971	-775.32819	-57.79653	655.73285	794.12769	-50.75601	660.92987	-9.97666	718.42493	-900.46100	
2646	26.450	-704.49017	54.35527	-557.66370	710.22083	55.15901	-473.25134	-775.61591	-57.54818	655.76721	794.10907	-50.69168	660.91248	-10.26616	718.35730	-900.62738	
2647	26.460	-704.76526	54.20911	-557.76794	709.87268	54.99688	-473.31519	-775.74432	-57.53723	655.76465	794.05237	-50.65757	660.84625	-10.57232	718.08820	-900.83423	
2648	26.470	-705.07959	54.07547	-557.87903	709.52295	54.90850	-473.32098	-775.83649	-57.51053	655.78918	793.74896	-50.54741	660.76282	-10.89166	717.84570	-901.04279	
2649	26.480	-705.23572	53.96431	-557.98279	709.42474	54.82703	-473.35162	-776.03394	-57.51204	655.76025	793.48181	-50.41417	660.72241	-11.29277	717.62775	-901.37738	
2650	26.490	-705.32648	53.85603	-557.98718	709.17883	54.73701	-473.40024	-776.33942	-57.37898	655.73846	793.14124	-50.19728	660.57086	-11.38605	717.51447	-901.54187	
2651	26.500	-705.50488	53.70755	-558.02393	708.81763	54.71994	-473.47610	-776.70923	-56.73243	655.66736	792.66675	-49.96687	660.52313	-11.52598	717.31342	-901.69391	
2652	26.510	-705.65912	53.57395	-558.02863	708.52814	54.55771	-473.52640	-777.13000	-56.54884	655.61084	792.36292	-49.94145	660.47192	-11.93948	717.05481	-902.01563	
2653	26.520	-705.98682	53.35859	-558.11688	708.23743	54.61122	-473.72128	-777.49005	-56.61585	655.43762	792.15314	-49.89542	660.50824	-12.09784	716.86407	-902.13428	
2654	26.530	-706.31799	53.21774	-558.10864	708.07434	54.57074	-473.87354	-777.72491	-56.61164	655.52844	791.87891	-49.78844	660.59308	-12.27401	716.76440	-902.21216	
2655	26.540	-706.68567	53.11804	-558.13409	707.67645	54.48275	-473.86066	-777.95831	-56.50657	655.49908	791.63049	-49.70366	660.65802	-12.63457	716.55017	-902.33423	
2656	26.550	-706.97064	53.02617	-558.16266	707.41058	54.38174	-473.73959	-778.16870	-56.43918	655.48425	791.29462	-49.64561	660.63885	-13.08398	716.32025	-902.40918	
2657	26.560	-707.40198	52.97977	-558.21027	707.10748	54.25293	-473.73166	-778.42883	-56.38528	655.44348	791.00183	-49.53868	660.64166	-13.36016	716.24597	-902.43427	
2658	26.570	-707.79132	52.96415	-558.23132	706.79852	54.10830	-473.76721	-778.88293	-56.21146	655.51721	790.60168	-49.44824	660.57123	-13.86333	716.19568	-902.60840	
2659	26.580	-708.20551	53.06522	-558.41010	706.51239	53.93234	-473.65582	-779.15546	-56.02859	655.57532	790.34137	-49.38354	660.58643	-13.85681	716.12537	-902.60236	
2660	26.590	-708.55774	53.14141	-558.50562	706.24493	54.11018	-473.55948	-779.44324	-56.14891	655.52277	789.90137	-49.20821	660.60345	-14.43194	716.04968	-902.79852	
2661	26.600	-708.84308	53.12503	-558.47137	705.72925	53.74745	-473.82968	-779.73730	-56.12563	655.58148	789.78979	-49.18145	660.56232	-14.62595	716.04114	-902.88702	
2662	26.610	-709.10168	52.88684	-558.43341	705.31989	53.79705	-473.90955	-780.04504	-56.15652	655.59338	789.58252	-49.19195	660.51190	-15.25346	715.98669	-903.03491	
2663	26.620	-709.34125	52.72118	-558.54065	705.02557	53.77465	-473.89951	-780.34454	-56.22520	655.56836	789.26892	-49.13660	660.48529	-15.45789	715.90881	-903.08038	
2664	26.630	-709.59064	52.60832	-558.58997	704.68774	53.80513	-473.90851	-780.69366	-56.18303	655.60718	788.77441	-49.13125	660.40161	-15.70323	715.79224	-903.11249	
2665	26.640	-709.86926	52.52383	-558.54974	704.50568	53.64285	-473.79465	-781.06549	-56.07795	655.65088	788.38544	-49.10962	660.36725	-16.00507	715.68213	-903.13422	
2666	26.650	-710.19183	52.48347	-558.45013	704.28351	53.64021	-473.82056	-781.50519	-55.93369	655.61389	787.96729	-49.04593	660.33545	-16.30928	715.61414	-903.21649	
2667	26.660	-710.58191	52.52691	-558.39886	704.06750	53.70443	-473.81311	-781.75885	-55.63042	655.70471	787.69556	-49.03842	660.30365	-16.57179	715.55139	-903.32623	
2668	26.670	-711.04205	52.62384	-558.45972	703.72089	53.66018	-473.87357	-782.10858	-55.66622	655.55762	787.25116	-49.07172	660.27032	-16.83111	715.45862	-903.44769	
2669	26.680	-711.38031	52.52521	-558.55060	703.33160	53.56775	-473.92636	-782.65253	-55.70416	655.43512	786.84045	-48.95229	660.34595	-17.28617	715.41101	-903.64355	
2670	26.690	-711.56018	52.34482	-558.54944	702.77960	53.42276	-474.00858	-782.86627	-55.73316	655.39758	786.48724	-48.84737	660.34155	-17.21001	715.31305	-903.64844	
2671	26.700	-711.96161	52.34016	-558.60443	702.31274	53.34520	-473.98410	-783.10394	-55.69314	655.34851	786.29651	-48.75508	660.36432	-17.90884	715.30316	-903.84418	
2672	26.710	-712.39191	52.28025	-558.49512	701.91632	53.24842	-474.00037	-783.51556	-55.57603	655.45483	785.90356	-48.78477	660.26544	-18.17939	715.21393	-903.79303	
2673	26.720	-712.74457	52.21455	-558.41827	701.57874	53.11881	-474.04565	-783.93048	-55.43396	655.43433	785.58551	-48.61903	660.35486	-18.52989	715.11664	-903.88367	
2674	26.730	-713.15631	52.28745	-558.46191	701.39948	52.92436	-474.13257	-784.32135	-55.34732	655.45404	785.23938	-48.62250	660.29584	-18.85880	714.95496	-903.89777	
2675	26.740	-713.38928	52.20668	-558.54907	701.22150	52.94194	-474.12738	-784.46088	-55.22346	655.53516	784.85870	-48.47850	660.25323	-19.24752	714.77692	-903.95410	
2676	26.750	-713.57068	52.12737	-558.58435	701.03357	52.97333	-474.06558	-784.82483	-55.36425	655.44769	784.49982	-48.47393	660.25122	-19.78317	714.69965	-904.11639	
2677	26.760	-713.94153	52.02095	-558.60803	700.57892	53.10684	-474.13712	-785.06897	-55.38471	655.37146	784.29999	-48.44058	660.24292	-20.03938	714.56866	-904.24402	
2678	26.770	-714.37170	51.98040	-558.65845	700.08411	53.19952	-474.24731	-785.26318	-55.39903	655.37860	784.06488	-48.37088	660.29333	-20.33114	714.54529	-904.29108	
2679	26.780	-714.79614	51.92951	-558.65784	699.70514	53.08254	-474.31320	-785.50787	-55.31819	655.34009	783.79456	-48.36019	660.26093	-20.67982	714.44177	-904.36627	
2680	26.790	-715.04681	51.81800	-558.75018	699.36768	53.15443	-474.24030	-785.91278	-55.12654	655.28363	783.48260	-48.24542	660.30096	-20.44320	714.11041	-904.21924	
2681	26.800	-715.16821	51.64334	-558.77325	699.18323	53.06858	-474.20221	-786.29333	-54.93328	655.27045	783.19244	-48.19926	660.32745	-20.79649	713.95532	-904.28259	
2682	26.810	-715.35846	51.57753	-558.83838	698.88947	52.98457	-474.29858	-786.55518	-54.70285	655.33484	782.75684	-48.06723	660.24048	-21.51128	713.93610	-904.54047	
2683	26.820	-715.63989	51.50787	-558.82275	698.60712	52.80100	-474.37421	-786.87805	-54.57799	655.31329	782.45050	-47.94564	660.28333	-21.85102	713.77106	-904.67975	
2684	26.830	-716.19415	51.36533	-558.93213	698.46527	52.50145	-474.28525	-787.31055	-54.49597	655.21698	782.13696	-47.76611	660.35565	-22.24919	713.56183	-904.83356	
2685	26.840	-716.51813	51.31476	-559.03705	698.24347	52.23080	-474.31256	-787.53546	-54.38802	655.15881	781.92499	-47.62443	660.42804	-22.41858	713.34998	-905.05249	
2686	26.850	-716.70453	51.18681	-559.07355	697.93188	52.00404	-474.35120	-787.76764	-54.19833	655.12799	781.78021	-47.54217	660.43250	-22.65473	713.23132	-905.30219	
2687	26.860	-716.85565	51.07642	-559.17511	697.64819	51.93687	-474.38876	-788.00275	-54.01525	655.00854	781.63647	-47.43830	660.41345	-22.68413	713.00610	-905.61053	
2688	26.870	-716.79846	50.95560	-559.26184	697.51184	51.90947	-474.32755	-788.23193	-53.85907	655.04810	781.27557	-47.22888	660.38129	-23.06134	712.69360	-905.91620	
2689	26.880	-717.09961	50.63612	-559.16327	697.39441	51.61560	-474.32278	-788.37427	-53.79275	655.09869	781.07483	-46.97937	660.38153	-22.11319	712.20264	-906.03387	
2690	26.890	-717.52124	50.42054	-559.24591	697.10950	51.51991	-474.44470	-788.68677	-53.64342	655.12708	780.69183	-46.78388	660.36536	-23.19127	711.86267	-906.62170	
2691	26.900	-717.84094	50.24320	-559.30487	696.89111	51.41135	-474.51563	-789.00549	-53.43194	655.04449	780.37360	-46.63836	660.38202	-23.79500	711.70276	-906.88953	
